<svg width="75" height="75" viewBox="0 0 75 75" fill="none" xmlns="http://www.w3.org/2000/svg">
<g clip-path="url(#clip0_44_553)">
<path d="M67.6603 39.5729C68.1913 39.0419 68.4843 38.3359 68.4843 37.5839C68.4843 36.8329 68.1913 36.1269 67.6603 35.5949L56.8503 24.7849C56.3193 24.2539 55.6133 23.9609 54.8623 23.9609C54.1103 23.9609 53.4043 24.2529 52.8733 24.7849C52.3423 25.3169 52.0493 26.0219 52.0493 26.7729C52.0493 27.5239 52.3423 28.2309 52.8733 28.7609L60.9873 36.8759C61.3783 37.2669 61.3783 37.8989 60.9873 38.2899L52.8733 46.4049C52.3423 46.9359 52.0493 47.6419 52.0493 48.3929C52.0493 49.1439 52.3423 49.8509 52.8733 50.3809C53.9343 51.4439 55.7863 51.4449 56.8513 50.3809L67.6603 39.5729Z" fill="#37C3F4"/>
<path d="M23.6299 33.791C21.5269 33.791 19.8169 35.501 19.8169 37.604C19.8169 39.707 21.5269 41.416 23.6299 41.416H50.9509C53.0539 41.416 54.7639 39.706 54.7639 37.604C54.7639 35.502 53.0539 33.791 50.9509 33.791H23.6299Z" fill="#37C3F4"/>
<path d="M50.9509 42.416H23.6299C20.9769 42.416 18.8169 40.257 18.8169 37.604C18.8169 34.95 20.9759 32.791 23.6299 32.791H50.9509C53.6039 32.791 55.7639 34.95 55.7639 37.604C55.7639 40.257 53.6039 42.416 50.9509 42.416ZM23.6299 34.791C22.0789 34.791 20.8169 36.053 20.8169 37.604C20.8169 39.155 22.0789 40.416 23.6299 40.416H50.9509C52.5019 40.416 53.7639 39.155 53.7639 37.604C53.7639 36.053 52.5019 34.791 50.9509 34.791H23.6299Z" fill="black"/>
<path d="M66.5233 38.4362L55.7133 49.2462C54.9933 49.9662 54.0353 50.3632 53.0183 50.3632C52.9573 50.3632 52.9003 50.3452 52.8403 50.3422C52.8523 50.3552 52.8603 50.3702 52.8733 50.3822C53.9343 51.4452 55.7863 51.4462 56.8513 50.3822L67.6613 39.5722C68.1923 39.0412 68.4853 38.3352 68.4853 37.5832C68.4853 36.8322 68.1923 36.1262 67.6613 35.5942L67.6233 35.5562C67.6263 35.6172 67.6413 35.6762 67.6413 35.7382C67.6403 36.7592 67.2443 37.7162 66.5233 38.4362Z" fill="white"/>
<path d="M54.8623 53.2072C53.5763 53.2072 52.3673 52.7062 51.4593 51.7972C50.5503 50.8882 50.0493 49.6802 50.0493 48.3942C50.0493 47.1092 50.5503 45.9002 51.4593 44.9912L58.8663 37.5842L51.4593 30.1772C50.5503 29.2682 50.0493 28.0602 50.0493 26.7742C50.0493 25.4892 50.5503 24.2802 51.4593 23.3712C52.3673 22.4622 53.5763 21.9622 54.8623 21.9622C56.1483 21.9622 57.3563 22.4622 58.2643 23.3722L69.0743 34.1822C69.9833 35.0912 70.4843 36.3002 70.4843 37.5852C70.4843 38.8712 69.9833 40.0792 69.0743 40.9882L58.2643 51.7982C57.3563 52.7062 56.1473 53.2072 54.8623 53.2072ZM54.8623 23.9622C54.1103 23.9622 53.4043 24.2542 52.8733 24.7862C52.3423 25.3182 52.0493 26.0232 52.0493 26.7742C52.0493 27.5252 52.3423 28.2322 52.8733 28.7622L60.9873 36.8772C61.3783 37.2682 61.3783 37.9002 60.9873 38.2912L52.8733 46.4062C52.3423 46.9372 52.0493 47.6432 52.0493 48.3942C52.0493 49.1452 52.3423 49.8522 52.8733 50.3822C53.9343 51.4452 55.7863 51.4462 56.8513 50.3822L67.6613 39.5722C68.1923 39.0412 68.4853 38.3352 68.4853 37.5832C68.4853 36.8322 68.1923 36.1262 67.6613 35.5942L56.8513 24.7842C56.3193 24.2542 55.6133 23.9622 54.8623 23.9622Z" fill="black"/>
<path d="M47.6501 11.481C47.6501 8.68804 45.3781 6.41504 42.5851 6.41504H11.5821C8.78811 6.41504 6.51611 8.68704 6.51611 11.481V63.518C6.51611 66.311 8.78811 68.584 11.5821 68.584H42.5851C45.3781 68.584 47.6501 66.312 47.6501 63.518V50.716C47.6501 49.055 46.2981 47.703 44.6371 47.703C43.8311 47.703 43.0741 48.017 42.5061 48.586C41.9371 49.156 41.6231 49.914 41.6241 50.72L41.6461 61.52C41.6471 62.072 41.2011 62.521 40.6481 62.522L13.5811 62.58C13.5801 62.58 13.5801 62.58 13.5791 62.58C13.3141 62.58 13.0601 62.475 12.8731 62.288C12.6851 62.1 12.5791 61.846 12.5791 61.581L12.5171 13.417C12.5171 13.151 12.6211 12.896 12.8091 12.709C12.9971 12.521 13.2511 12.416 13.5171 12.416H40.5861C41.1381 12.416 41.5851 12.862 41.5861 13.414L41.6091 24.449C41.6111 26.114 42.9651 27.467 44.6301 27.467C46.2951 27.467 47.6501 26.112 47.6501 24.446V11.481Z" fill="#EF3039"/>
<path d="M42.5851 70.584H11.5821C7.68611 70.584 4.51611 67.414 4.51611 63.518V11.481C4.51611 7.58504 7.68611 4.41504 11.5821 4.41504H42.5851C46.4811 4.41504 49.6501 7.58504 49.6501 11.481V24.446C49.6501 27.215 47.3981 29.467 44.6301 29.467C41.8641 29.467 39.6111 27.217 39.6091 24.452L39.5881 14.416H14.5181L14.5781 60.578L39.6451 60.525L39.6241 50.724C39.6231 49.382 40.1441 48.121 41.0901 47.174C42.0371 46.226 43.2971 45.704 44.6371 45.704C47.4011 45.704 49.6501 47.953 49.6501 50.717V63.519C49.6501 67.415 46.4801 70.584 42.5851 70.584ZM11.5821 6.41604C8.78811 6.41604 6.51611 8.68804 6.51611 11.482V63.519C6.51611 66.312 8.78811 68.585 11.5821 68.585H42.5851C45.3781 68.585 47.6501 66.313 47.6501 63.519V50.716C47.6501 49.055 46.2981 47.703 44.6371 47.703C43.8311 47.703 43.0741 48.017 42.5061 48.586C41.9371 49.156 41.6231 49.914 41.6241 50.72L41.6461 61.52C41.6471 62.072 41.2011 62.521 40.6481 62.522L13.5811 62.58C13.5801 62.58 13.5801 62.58 13.5791 62.58C13.3141 62.58 13.0601 62.475 12.8731 62.288C12.6851 62.1 12.5791 61.846 12.5791 61.581L12.5171 13.417C12.5171 13.151 12.6211 12.896 12.8091 12.709C12.9971 12.521 13.2511 12.416 13.5171 12.416H40.5861C41.1381 12.416 41.5851 12.862 41.5861 13.414L41.6091 24.449C41.6111 26.114 42.9651 27.467 44.6301 27.467C46.2951 27.467 47.6501 26.112 47.6501 24.446V11.481C47.6501 8.68804 45.3781 6.41504 42.5851 6.41504L11.5821 6.41604Z" fill="black"/>
</g>
<defs>
<clipPath id="clip0_44_553">
<rect width="75" height="75" fill="white"/>
</clipPath>
</defs>
</svg>
