<svg width="26" height="20" viewBox="0 0 26 20" fill="none" xmlns="http://www.w3.org/2000/svg">
<path d="M22.9532 0H2.6491C1.25319 0 0.123774 1.125 0.123774 2.5L0.111084 17.5C0.111084 18.875 1.25319 20 2.6491 20H22.9532C24.3491 20 25.4912 18.875 25.4912 17.5V2.5C25.4912 1.125 24.3491 0 22.9532 0ZM22.4456 5.3125L13.4737 10.8375C13.0676 11.0875 12.5347 11.0875 12.1286 10.8375L3.1567 5.3125C2.83945 5.1125 2.6491 4.775 2.6491 4.4125C2.6491 3.575 3.57547 3.075 4.2988 3.5125L12.8011 8.75L21.3035 3.5125C22.0268 3.075 22.9532 3.575 22.9532 4.4125C22.9532 4.775 22.7628 5.1125 22.4456 5.3125Z" fill="#94A1B2" fill-opacity="0.8"/>
</svg>
