<svg width="447" height="418" viewBox="0 0 447 418" fill="none" xmlns="http://www.w3.org/2000/svg">
<mask id="mask0_39_5363" style="mask-type:luminance" maskUnits="userSpaceOnUse" x="0" y="0" width="625" height="418">
<path d="M624.55 0.420044H0.550049V417.42H624.55V0.420044Z" fill="white"/>
</mask>
<g mask="url(#mask0_39_5363)">
<path d="M391.91 472.88C378.34 481.88 363.34 492.33 346.56 490.82C329.56 489.28 309.63 488.94 292.9 492.9C279.69 496.03 267.09 501.51 253.75 504.01C234.45 507.64 214.58 504.89 195.22 501.6C139.103 492.054 83.8502 477.989 30 459.54C16.56 454.93 2.51001 449.54 -6.39999 438.54C-12.66 430.77 -15.71 420.97 -18.49 411.39C-45.14 319.39 -58.31 222.74 -49.09 127.39C-45.59 91.24 -38.82 55.13 -25.09 21.5C-18.6991 5.8335 -10.8408 -9.19342 -1.61999 -23.38C0.470012 -26.6 2.71001 -29.86 5.89001 -32.02C9.07001 -34.18 12.58 -35.02 16.17 -35.8C53.35 -44.12 91.75 -45.17 129.85 -45C170.343 -44.8 210.79 -43.2367 251.19 -40.31C258.5 -39.78 266.41 -38.95 271.78 -33.96C281.57 -24.85 271.42 -13.34 265.78 -5.57C242.351 26.9046 228.773 65.4411 226.67 105.43C226.12 116.65 227.5 129.81 237 135.79C246.5 141.77 260.49 137.86 268.83 145.4C273.63 149.73 275.04 156.83 274.26 163.25C273.48 169.67 270.82 175.68 268.62 181.76C264.07 194.33 261.35 207.69 261.9 221.05C262.06 225.05 262.57 229.26 264.77 232.64C268.12 237.79 274.51 239.9 280.49 241.3C296.624 245.089 313.257 246.301 329.77 244.89C336.77 244.3 344.56 243.49 349.89 248.01C354.33 251.77 355.52 258.33 354.35 264.01C353.18 269.69 350.04 274.78 346.95 279.71C339.52 291.58 331.06 305.31 326.16 318.41C322.6 327.94 321.44 339.91 328.56 347.18C333.13 351.84 339.96 353.33 346.39 354.46C358.93 356.647 371.547 358.287 384.24 359.38C396.52 360.43 409.07 361 420.62 365.31C432.17 369.62 442.83 378.48 445.62 390.48C448.14 401.27 444.02 412.48 439.2 422.42C434.83 431.42 429.79 440.23 423.2 447.78C414.38 457.9 403.07 465.45 391.91 472.88Z" fill="#C3DBDF"/>
</g>
</svg>
