<svg width="25" height="25" viewBox="0 0 25 25" fill="none" xmlns="http://www.w3.org/2000/svg">
<path d="M18.3827 23.2597H7.12797V0.750312H18.3827C18.4821 0.750312 18.5776 0.710787 18.6479 0.640432C18.7183 0.570076 18.7578 0.474654 18.7578 0.375156C18.7578 0.275659 18.7183 0.180236 18.6479 0.109881C18.5776 0.0395253 18.4821 0 18.3827 0L3.37641 0C2.48093 0 1.62213 0.355727 0.988926 0.988926C0.355727 1.62213 0 2.48093 0 3.37641L0 20.6336C0 21.5291 0.355727 22.3879 0.988926 23.0211C1.62213 23.6543 2.48093 24.01 3.37641 24.01H18.3827C18.4821 24.01 18.5776 23.9705 18.6479 23.9001C18.7183 23.8298 18.7578 23.7343 18.7578 23.6348C18.7578 23.5353 18.7183 23.4399 18.6479 23.3696C18.5776 23.2992 18.4821 23.2597 18.3827 23.2597ZM0.750312 20.6336V3.37641C0.750312 2.67992 1.02699 2.01197 1.51948 1.51948C2.01197 1.02699 2.67992 0.750312 3.37641 0.750312H6.37765V23.2597H3.37641C2.67992 23.2597 2.01197 22.983 1.51948 22.4905C1.02699 21.998 0.750312 21.3301 0.750312 20.6336Z" fill="black"/>
<path d="M23.8993 11.7405L18.272 6.11316C18.2002 6.0517 18.1079 6.01958 18.0135 6.02323C17.9191 6.02688 17.8295 6.06602 17.7627 6.13283C17.6959 6.19964 17.6568 6.28921 17.6531 6.38363C17.6495 6.47804 17.6816 6.57036 17.743 6.64213L22.7289 11.6298H10.8796C10.7801 11.6298 10.6846 11.6694 10.6143 11.7397C10.5439 11.8101 10.5044 11.9055 10.5044 12.005C10.5044 12.1045 10.5439 12.1999 10.6143 12.2703C10.6846 12.3406 10.7801 12.3801 10.8796 12.3801H22.7289L17.743 17.3678C17.7038 17.4015 17.6719 17.4429 17.6493 17.4894C17.6268 17.5359 17.6142 17.5866 17.6122 17.6383C17.6102 17.69 17.6189 17.7415 17.6377 17.7896C17.6566 17.8378 17.6852 17.8815 17.7218 17.9181C17.7583 17.9546 17.8021 17.9832 17.8502 18.0021C17.8983 18.021 17.9499 18.0297 18.0015 18.0277C18.0532 18.0257 18.1039 18.013 18.1504 17.9905C18.197 17.968 18.2384 17.9361 18.272 17.8968L23.8993 12.2695C23.9692 12.1992 24.0084 12.1041 24.0084 12.005C24.0084 11.9059 23.9692 11.8108 23.8993 11.7405Z" fill="black"/>
</svg>
