<svg width="26" height="29" viewBox="0 0 26 29" fill="none" xmlns="http://www.w3.org/2000/svg">
<path fill-rule="evenodd" clip-rule="evenodd" d="M24.6476 8.80451L23.8003 7.3342C23.0835 6.09009 21.4949 5.6609 20.2491 6.37476C19.6561 6.7241 18.9485 6.82321 18.2823 6.65024C17.6161 6.47727 17.0461 6.04642 16.6979 5.4527C16.474 5.07532 16.3536 4.64549 16.3491 4.20667C16.3693 3.50313 16.1038 2.82137 15.6132 2.3167C15.1227 1.81203 14.4487 1.52742 13.7449 1.52771H12.0378C11.3483 1.52771 10.6871 1.80247 10.2007 2.29121C9.71434 2.77996 9.44274 3.44238 9.44606 4.13191C9.42562 5.55555 8.26565 6.69887 6.84186 6.69872C6.40305 6.69417 5.97321 6.57381 5.59584 6.34984C4.35003 5.63598 2.76147 6.06517 2.04466 7.30928L1.13506 8.80451C0.419108 10.0471 0.842454 11.6346 2.08204 12.3557C2.88779 12.8209 3.38415 13.6806 3.38415 14.611C3.38415 15.5414 2.88779 16.4011 2.08204 16.8663C0.844028 17.5825 0.42022 19.1662 1.13506 20.405L1.99482 21.8878C2.33067 22.4938 2.89419 22.941 3.56066 23.1304C4.22713 23.3199 4.94161 23.2359 5.54599 22.8971C6.14014 22.5504 6.84816 22.4554 7.51267 22.6332C8.17718 22.8111 8.74313 23.247 9.08471 23.8441C9.30869 24.2214 9.42904 24.6513 9.4336 25.0901C9.4336 26.5283 10.5995 27.6943 12.0378 27.6943H13.7449C15.1783 27.6943 16.3422 26.5359 16.3491 25.1025C16.3457 24.4109 16.619 23.7465 17.1081 23.2574C17.5972 22.7683 18.2616 22.495 18.9532 22.4984C19.391 22.5101 19.8191 22.6299 20.1993 22.8472C21.4418 23.5632 23.0294 23.1398 23.7505 21.9003L24.6476 20.405C24.9949 19.809 25.0902 19.0991 24.9124 18.4326C24.7347 17.766 24.2985 17.1978 23.7006 16.8538C23.1027 16.5099 22.6665 15.9417 22.4888 15.2751C22.3111 14.6086 22.4064 13.8987 22.7536 13.3027C22.9795 12.9084 23.3063 12.5815 23.7006 12.3557C24.9328 11.635 25.3551 10.0567 24.6476 8.81697V8.80451Z" stroke="#18181B" stroke-width="1.5" stroke-linecap="round" stroke-linejoin="round"/>
<path d="M12.8972 18.1992C14.879 18.1992 16.4855 16.5926 16.4855 14.6108C16.4855 12.629 14.879 11.0225 12.8972 11.0225C10.9154 11.0225 9.30884 12.629 9.30884 14.6108C9.30884 16.5926 10.9154 18.1992 12.8972 18.1992Z" stroke="#18181B" stroke-width="1.5" stroke-linecap="round" stroke-linejoin="round"/>
</svg>
